<svg width="173" height="36" viewBox="0 0 173 36" fill="none" xmlns="http://www.w3.org/2000/svg">
<path d="M42.9346 3.3444C42.9776 3.2379 42.9999 3.12431 43.0006 3.0095C43.0006 2.76164 42.9023 2.52389 42.7273 2.34837C42.5523 2.17285 42.3147 2.07392 42.0668 2.07331C41.8864 2.07442 41.71 2.12699 41.5584 2.22481L25.9654 15.4492L22.4137 10.0153C22.3411 9.87809 22.2352 9.76137 22.1056 9.67598C21.976 9.59053 21.8271 9.53912 21.6724 9.5265C21.5177 9.51382 21.3624 9.54029 21.2207 9.60352C21.0789 9.66668 20.9554 9.76457 20.8614 9.88812C20.8383 9.91601 20.8171 9.94538 20.7979 9.9761L17.0482 15.4638L1.62871 2.37392C1.54312 2.27573 1.43761 2.19674 1.31918 2.14238C1.20076 2.08802 1.07213 2.05946 0.941833 2.05859C0.693955 2.05927 0.456451 2.1582 0.281403 2.33366C0.106361 2.50917 0.00805664 2.74693 0.00805664 2.99485C0.00805664 3.01436 0.00805664 3.0364 0.00805664 3.05592L0.0276154 3.1586V3.19283L5.67912 33.1859C5.67912 33.1859 5.67912 33.2006 5.67912 33.208V33.2471C5.72129 33.4094 5.80662 33.5573 5.92605 33.675C6.04548 33.7928 6.19459 33.876 6.35749 33.9159C6.52044 33.9558 6.6911 33.9507 6.85141 33.9014C7.01172 33.8521 7.15565 33.7602 7.268 33.6357L21.4824 21.5652L35.704 33.6406C35.8258 33.7711 35.9826 33.8639 36.1557 33.9076C36.3287 33.9514 36.5108 33.9444 36.6799 33.8874C36.8491 33.8304 36.9983 33.7258 37.1096 33.5863C37.2209 33.4467 37.2897 33.278 37.3076 33.1004L42.9346 3.3444ZM40.786 5.20945L35.9607 30.7415L26.9457 16.9501L40.786 5.20945ZM16.0533 16.9427L6.93556 30.26L2.21293 5.19973L16.0533 16.9427ZM9.87378 29.1135L17.4026 18.0989L20.1257 20.4113L9.87378 29.1135ZM18.4121 16.6225L21.5899 11.9781L24.6088 16.6005L21.4995 19.2429L18.4121 16.6225ZM22.8732 20.4089L25.5817 18.1136L32.3356 28.4462L22.8732 20.4089Z" fill="#521BCC"/>
<path d="M5.69551 33.2539C5.73935 33.3872 5.80547 33.512 5.89104 33.623C5.96214 33.7159 6.05215 33.7925 6.15508 33.8479C6.21338 33.8776 6.27488 33.9005 6.33842 33.9164C6.41808 33.938 6.50033 33.9486 6.58282 33.9481C6.75415 33.9482 6.9221 33.901 7.06831 33.8117C7.21452 33.7224 7.33328 33.5946 7.41152 33.4421C7.58261 33.1586 8.82679 31.0515 10.5306 28.1329L17.3897 18.0961L21.5671 11.985L24.586 16.6074L32.3226 28.4384L35.7082 33.6451C35.7874 33.7258 35.879 33.7935 35.9795 33.8455C36.021 33.8679 36.0644 33.8867 36.1091 33.9017L36.2044 33.9262L36.2802 33.9384H36.4244C36.4661 33.9367 36.5078 33.9326 36.5491 33.9262C36.728 33.8918 36.8934 33.807 37.0257 33.6817C37.1239 33.5837 37.2019 33.4675 37.2555 33.3395C37.4462 32.8653 41.7117 9.87298 42.9217 3.33172C42.9859 3.1562 42.9969 2.96572 42.9534 2.78399C42.9099 2.60232 42.8139 2.43739 42.6772 2.30995C42.6345 2.27314 42.5895 2.23891 42.5428 2.20727C42.4911 2.17569 42.4372 2.14792 42.3814 2.12416C42.1858 2.04831 41.9712 2.03551 41.7679 2.08753C41.6786 2.11628 41.5956 2.1619 41.5235 2.22192C41.4887 2.24599 41.4567 2.27388 41.4281 2.30503C41.4281 2.31728 41.4062 2.33439 41.4012 2.33926C41.3841 2.36604 41.3686 2.39374 41.3548 2.42237L41.3279 2.48104C41.3279 2.50548 41.2913 2.66197 41.2864 2.68395C41.2815 2.70593 41.2864 2.72551 41.2692 2.77925L41.2301 2.96018C41.2008 3.07992 41.0761 3.67395 40.7657 5.19683L35.96 30.7411L22.413 10.0148C22.3312 9.86873 22.2125 9.74671 22.0688 9.66089C21.9251 9.57507 21.7614 9.52853 21.5941 9.52588C21.4499 9.51591 21.3058 9.54485 21.1768 9.60979C21.0477 9.67474 20.9385 9.77331 20.8607 9.89502L17.0474 15.4634L6.93484 30.2595L2.2122 5.19923L1.62799 2.37349C1.51418 2.23134 1.35819 2.12896 1.18249 2.08106C1.00678 2.03317 0.820415 2.04228 0.650218 2.10704C0.461459 2.16645 0.296587 2.28453 0.17963 2.4441C0.062672 2.60373 -0.000263889 2.79649 8.31689e-07 2.99441L5.69551 33.2539Z" fill="#711FFF"/>
<path d="M65.6646 12.608C66.6886 12.608 67.6006 12.824 68.4006 13.256C69.2006 13.672 69.8326 14.304 70.2966 15.152C70.7606 16 70.9926 17.032 70.9926 18.248V26H68.8326V18.56C68.8326 17.248 68.5046 16.248 67.8486 15.56C67.2086 14.856 66.3366 14.504 65.2326 14.504C64.0966 14.504 63.1926 14.872 62.5206 15.608C61.8486 16.328 61.5126 17.376 61.5126 18.752V26H59.3526V18.56C59.3526 17.248 59.0246 16.248 58.3686 15.56C57.7286 14.856 56.8566 14.504 55.7526 14.504C54.6166 14.504 53.7126 14.872 53.0406 15.608C52.3686 16.328 52.0326 17.376 52.0326 18.752V26H49.8486V12.848H52.0326V14.744C52.4646 14.056 53.0406 13.528 53.7606 13.16C54.4966 12.792 55.3046 12.608 56.1846 12.608C57.2886 12.608 58.2646 12.856 59.1126 13.352C59.9606 13.848 60.5926 14.576 61.0086 15.536C61.3766 14.608 61.9846 13.888 62.8326 13.376C63.6806 12.864 64.6246 12.608 65.6646 12.608ZM86.5752 18.92C86.5752 19.336 86.5512 19.776 86.5032 20.24H75.9912C76.0712 21.536 76.5112 22.552 77.3112 23.288C78.1272 24.008 79.1112 24.368 80.2632 24.368C81.2072 24.368 81.9912 24.152 82.6152 23.72C83.2552 23.272 83.7032 22.68 83.9592 21.944H86.3112C85.9592 23.208 85.2552 24.24 84.1992 25.04C83.1432 25.824 81.8312 26.216 80.2632 26.216C79.0152 26.216 77.8952 25.936 76.9032 25.376C75.9272 24.816 75.1592 24.024 74.5992 23C74.0392 21.96 73.7592 20.76 73.7592 19.4C73.7592 18.04 74.0312 16.848 74.5752 15.824C75.1192 14.8 75.8792 14.016 76.8552 13.472C77.8472 12.912 78.9832 12.632 80.2632 12.632C81.5112 12.632 82.6152 12.904 83.5752 13.448C84.5352 13.992 85.2712 14.744 85.7832 15.704C86.3112 16.648 86.5752 17.72 86.5752 18.92ZM84.3192 18.464C84.3192 17.632 84.1352 16.92 83.7672 16.328C83.3992 15.72 82.8952 15.264 82.2552 14.96C81.6312 14.64 80.9352 14.48 80.1672 14.48C79.0632 14.48 78.1192 14.832 77.3352 15.536C76.5672 16.24 76.1272 17.216 76.0152 18.464H84.3192ZM92.122 14.648V22.4C92.122 23.04 92.258 23.496 92.53 23.768C92.802 24.024 93.274 24.152 93.946 24.152H95.554V26H93.586C92.37 26 91.458 25.72 90.85 25.16C90.242 24.6 89.938 23.68 89.938 22.4V14.648H88.234V12.848H89.938V9.536H92.122V12.848H95.554V14.648H92.122ZM97.3842 19.376C97.3842 18.032 97.6562 16.856 98.2002 15.848C98.7442 14.824 99.4882 14.032 100.432 13.472C101.392 12.912 102.456 12.632 103.624 12.632C104.776 12.632 105.776 12.88 106.624 13.376C107.472 13.872 108.104 14.496 108.52 15.248V12.848H110.728V26H108.52V23.552C108.088 24.32 107.44 24.96 106.576 25.472C105.728 25.968 104.736 26.216 103.6 26.216C102.432 26.216 101.376 25.928 100.432 25.352C99.4882 24.776 98.7442 23.968 98.2002 22.928C97.6562 21.888 97.3842 20.704 97.3842 19.376ZM108.52 19.4C108.52 18.408 108.32 17.544 107.92 16.808C107.52 16.072 106.976 15.512 106.288 15.128C105.616 14.728 104.872 14.528 104.056 14.528C103.24 14.528 102.496 14.72 101.824 15.104C101.152 15.488 100.616 16.048 100.216 16.784C99.8162 17.52 99.6162 18.384 99.6162 19.376C99.6162 20.384 99.8162 21.264 100.216 22.016C100.616 22.752 101.152 23.32 101.824 23.72C102.496 24.104 103.24 24.296 104.056 24.296C104.872 24.296 105.616 24.104 106.288 23.72C106.976 23.32 107.52 22.752 107.92 22.016C108.32 21.264 108.52 20.392 108.52 19.4Z" fill="#0094FF"/>
<path d="M120.371 9.152C122.147 9.152 123.699 9.504 125.027 10.208C126.355 10.912 127.379 11.904 128.099 13.184C128.835 14.448 129.203 15.912 129.203 17.576C129.203 19.224 128.835 20.688 128.099 21.968C127.379 23.248 126.347 24.24 125.003 24.944C123.675 25.648 122.131 26 120.371 26H114.059V9.152H120.371ZM120.107 22.448C121.659 22.448 122.867 22.024 123.731 21.176C124.595 20.328 125.027 19.128 125.027 17.576C125.027 16.024 124.595 14.816 123.731 13.952C122.867 13.088 121.659 12.656 120.107 12.656H118.163V22.448H120.107ZM130.68 19.28C130.68 17.904 130.936 16.696 131.448 15.656C131.976 14.616 132.688 13.816 133.584 13.256C134.48 12.696 135.48 12.416 136.584 12.416C137.528 12.416 138.352 12.608 139.056 12.992C139.776 13.376 140.328 13.88 140.712 14.504V12.608H144.816V26H140.712V24.104C140.312 24.728 139.752 25.232 139.032 25.616C138.328 26 137.504 26.192 136.56 26.192C135.472 26.192 134.48 25.912 133.584 25.352C132.688 24.776 131.976 23.968 131.448 22.928C130.936 21.872 130.68 20.656 130.68 19.28ZM140.712 19.304C140.712 18.28 140.424 17.472 139.848 16.88C139.288 16.288 138.6 15.992 137.784 15.992C136.968 15.992 136.272 16.288 135.696 16.88C135.136 17.456 134.856 18.256 134.856 19.28C134.856 20.304 135.136 21.12 135.696 21.728C136.272 22.32 136.968 22.616 137.784 22.616C138.6 22.616 139.288 22.32 139.848 21.728C140.424 21.136 140.712 20.328 140.712 19.304ZM155.249 22.52V26H153.161C151.673 26 150.513 25.64 149.681 24.92C148.849 24.184 148.433 22.992 148.433 21.344V16.016H146.801V12.608H148.433V9.344H152.537V12.608H155.225V16.016H152.537V21.392C152.537 21.792 152.633 22.08 152.825 22.256C153.017 22.432 153.337 22.52 153.785 22.52H155.249ZM156.719 19.28C156.719 17.904 156.975 16.696 157.487 15.656C158.015 14.616 158.727 13.816 159.623 13.256C160.519 12.696 161.519 12.416 162.623 12.416C163.567 12.416 164.391 12.608 165.095 12.992C165.815 13.376 166.367 13.88 166.751 14.504V12.608H170.855V26H166.751V24.104C166.351 24.728 165.791 25.232 165.071 25.616C164.367 26 163.543 26.192 162.599 26.192C161.511 26.192 160.519 25.912 159.623 25.352C158.727 24.776 158.015 23.968 157.487 22.928C156.975 21.872 156.719 20.656 156.719 19.28ZM166.751 19.304C166.751 18.28 166.463 17.472 165.887 16.88C165.327 16.288 164.639 15.992 163.823 15.992C163.007 15.992 162.311 16.288 161.735 16.88C161.175 17.456 160.895 18.256 160.895 19.28C160.895 20.304 161.175 21.12 161.735 21.728C162.311 22.32 163.007 22.616 163.823 22.616C164.639 22.616 165.327 22.32 165.887 21.728C166.463 21.136 166.751 20.328 166.751 19.304Z" fill="#711FFF"/>
</svg>
