<svg width="226" height="60" viewBox="0 0 226 60" fill="none" xmlns="http://www.w3.org/2000/svg">
<rect width="60" height="60" rx="10" fill="white"/>
<path d="M50.9346 15.2936C50.9776 15.1871 50.9999 15.0735 51.0006 14.9587C51.0006 14.7109 50.9023 14.4731 50.7273 14.2976C50.5523 14.1221 50.3147 14.0231 50.0668 14.0225C49.8864 14.0236 49.71 14.0762 49.5584 14.174L33.9654 27.3984L30.4137 21.9645C30.3411 21.8273 30.2352 21.7106 30.1056 21.6252C29.976 21.5397 29.8271 21.4883 29.6724 21.4757C29.5177 21.463 29.3624 21.4895 29.2207 21.5527C29.0789 21.6159 28.9554 21.7138 28.8614 21.8373C28.8383 21.8652 28.8171 21.8946 28.7979 21.9253L25.0482 27.413L9.62871 14.3231C9.54312 14.2249 9.43761 14.146 9.31918 14.0916C9.20076 14.0372 9.07213 14.0087 8.94183 14.0078C8.69396 14.0085 8.45645 14.1074 8.2814 14.2829C8.10636 14.4584 8.00806 14.6961 8.00806 14.9441C8.00806 14.9636 8.00806 14.9856 8.00806 15.0051L8.02762 15.1078V15.1421L13.6791 45.1351C13.6791 45.1351 13.6791 45.1498 13.6791 45.1572V45.1963C13.7213 45.3586 13.8066 45.5065 13.9261 45.6243C14.0455 45.742 14.1946 45.8253 14.3575 45.8651C14.5204 45.905 14.6911 45.8999 14.8514 45.8506C15.0117 45.8013 15.1557 45.7095 15.268 45.5849L29.4824 33.5144L43.704 45.5899C43.8258 45.7204 43.9826 45.8131 44.1557 45.8569C44.3287 45.9006 44.5108 45.8936 44.6799 45.8366C44.8491 45.7796 44.9983 45.6751 45.1096 45.5355C45.2209 45.3959 45.2897 45.2272 45.3076 45.0496L50.9346 15.2936ZM48.786 17.1587L43.9607 42.6907L34.9457 28.8993L48.786 17.1587ZM24.0533 28.8919L14.9356 42.2092L10.2129 17.1489L24.0533 28.8919ZM17.8738 41.0628L25.4026 30.0481L28.1257 32.3606L17.8738 41.0628ZM26.4121 28.5717L29.5899 23.9273L32.6088 28.5497L29.4995 31.1922L26.4121 28.5717ZM30.8732 32.3582L33.5817 30.0628L40.3356 40.3954L30.8732 32.3582Z" fill="#171C32"/>
<path d="M13.6955 45.2032C13.7393 45.3364 13.8055 45.4612 13.891 45.5722C13.9621 45.6651 14.0521 45.7417 14.1551 45.7971C14.2134 45.8268 14.2749 45.8498 14.3384 45.8656C14.4181 45.8872 14.5003 45.8978 14.5828 45.8974C14.7542 45.8974 14.9221 45.8502 15.0683 45.7609C15.2145 45.6717 15.3333 45.5438 15.4115 45.3914C15.5826 45.1078 16.8268 43.0007 18.5306 40.0821L25.3897 30.0453L29.5671 23.9342L32.586 28.5566L40.3226 40.3876L43.7082 45.5943C43.7874 45.675 43.879 45.7427 43.9795 45.7947C44.021 45.8171 44.0644 45.8359 44.1091 45.8509L44.2044 45.8754L44.2802 45.8876H44.4244C44.4661 45.8859 44.5078 45.8818 44.5491 45.8754C44.728 45.841 44.8934 45.7562 45.0257 45.6309C45.1239 45.533 45.2019 45.4167 45.2555 45.2887C45.4462 44.8145 49.7117 21.8222 50.9217 15.2809C50.9859 15.1054 50.9969 14.9149 50.9534 14.7332C50.9099 14.5515 50.8139 14.3866 50.6772 14.2592C50.6345 14.2224 50.5895 14.1881 50.5428 14.1565C50.4911 14.1249 50.4372 14.0971 50.3814 14.0734C50.1858 13.9975 49.9712 13.9847 49.7679 14.0367C49.6786 14.0655 49.5956 14.1111 49.5235 14.1711C49.4887 14.1952 49.4567 14.2231 49.4281 14.2542C49.4281 14.2665 49.4062 14.2836 49.4012 14.2885C49.3841 14.3153 49.3686 14.343 49.3548 14.3716L49.3279 14.4303C49.3279 14.4547 49.2913 14.6112 49.2864 14.6332C49.2815 14.6551 49.2864 14.6747 49.2692 14.7285L49.2301 14.9094C49.2008 15.0291 49.0761 15.6232 48.7657 17.146L43.96 42.6903L30.413 21.964C30.3312 21.8179 30.2125 21.6959 30.0688 21.6101C29.9251 21.5243 29.7614 21.4778 29.5941 21.4751C29.4499 21.4651 29.3058 21.4941 29.1768 21.559C29.0477 21.624 28.9385 21.7225 28.8607 21.8442L25.0474 27.4126L14.9348 42.2087L10.2122 17.1485L9.62799 14.3227C9.51418 14.1806 9.35819 14.0782 9.18249 14.0303C9.00678 13.9824 8.82041 13.9915 8.65022 14.0563C8.46146 14.1157 8.29659 14.2337 8.17963 14.3933C8.06267 14.553 7.99974 14.7457 8 14.9436L13.6955 45.2032Z" fill="#171C32"/>
<path d="M92.08 23.76C93.36 23.76 94.5 24.03 95.5 24.57C96.5 25.09 97.29 25.88 97.87 26.94C98.45 28 98.74 29.29 98.74 30.81V40.5H96.04V31.2C96.04 29.56 95.63 28.31 94.81 27.45C94.01 26.57 92.92 26.13 91.54 26.13C90.12 26.13 88.99 26.59 88.15 27.51C87.31 28.41 86.89 29.72 86.89 31.44V40.5H84.19V31.2C84.19 29.56 83.78 28.31 82.96 27.45C82.16 26.57 81.07 26.13 79.69 26.13C78.27 26.13 77.14 26.59 76.3 27.51C75.46 28.41 75.04 29.72 75.04 31.44V40.5H72.31V24.06H75.04V26.43C75.58 25.57 76.3 24.91 77.2 24.45C78.12 23.99 79.13 23.76 80.23 23.76C81.61 23.76 82.83 24.07 83.89 24.69C84.95 25.31 85.74 26.22 86.26 27.42C86.72 26.26 87.48 25.36 88.54 24.72C89.6 24.08 90.78 23.76 92.08 23.76ZM118.218 31.65C118.218 32.17 118.188 32.72 118.128 33.3H104.988C105.088 34.92 105.638 36.19 106.638 37.11C107.658 38.01 108.888 38.46 110.328 38.46C111.508 38.46 112.488 38.19 113.268 37.65C114.068 37.09 114.628 36.35 114.948 35.43H117.888C117.448 37.01 116.568 38.3 115.248 39.3C113.928 40.28 112.288 40.77 110.328 40.77C108.768 40.77 107.368 40.42 106.128 39.72C104.908 39.02 103.948 38.03 103.248 36.75C102.548 35.45 102.198 33.95 102.198 32.25C102.198 30.55 102.538 29.06 103.218 27.78C103.898 26.5 104.848 25.52 106.068 24.84C107.308 24.14 108.728 23.79 110.328 23.79C111.888 23.79 113.268 24.13 114.468 24.81C115.668 25.49 116.588 26.43 117.228 27.63C117.888 28.81 118.218 30.15 118.218 31.65ZM115.398 31.08C115.398 30.04 115.168 29.15 114.708 28.41C114.248 27.65 113.618 27.08 112.818 26.7C112.038 26.3 111.168 26.1 110.208 26.1C108.828 26.1 107.648 26.54 106.668 27.42C105.708 28.3 105.158 29.52 105.018 31.08H115.398ZM125.152 26.31V36C125.152 36.8 125.322 37.37 125.662 37.71C126.002 38.03 126.592 38.19 127.432 38.19H129.442V40.5H126.982C125.462 40.5 124.322 40.15 123.562 39.45C122.802 38.75 122.422 37.6 122.422 36V26.31H120.292V24.06H122.422V19.92H125.152V24.06H129.442V26.31H125.152ZM131.729 32.22C131.729 30.54 132.069 29.07 132.749 27.81C133.429 26.53 134.359 25.54 135.539 24.84C136.739 24.14 138.069 23.79 139.529 23.79C140.969 23.79 142.219 24.1 143.279 24.72C144.339 25.34 145.129 26.12 145.649 27.06V24.06H148.409V40.5H145.649V37.44C145.109 38.4 144.299 39.2 143.219 39.84C142.159 40.46 140.919 40.77 139.499 40.77C138.039 40.77 136.719 40.41 135.539 39.69C134.359 38.97 133.429 37.96 132.749 36.66C132.069 35.36 131.729 33.88 131.729 32.22ZM145.649 32.25C145.649 31.01 145.399 29.93 144.899 29.01C144.399 28.09 143.719 27.39 142.859 26.91C142.019 26.41 141.089 26.16 140.069 26.16C139.049 26.16 138.119 26.4 137.279 26.88C136.439 27.36 135.769 28.06 135.269 28.98C134.769 29.9 134.519 30.98 134.519 32.22C134.519 33.48 134.769 34.58 135.269 35.52C135.769 36.44 136.439 37.15 137.279 37.65C138.119 38.13 139.049 38.37 140.069 38.37C141.089 38.37 142.019 38.13 142.859 37.65C143.719 37.15 144.399 36.44 144.899 35.52C145.399 34.58 145.649 33.49 145.649 32.25ZM160.463 19.44C162.683 19.44 164.623 19.88 166.283 20.76C167.943 21.64 169.223 22.88 170.123 24.48C171.043 26.06 171.503 27.89 171.503 29.97C171.503 32.03 171.043 33.86 170.123 35.46C169.223 37.06 167.933 38.3 166.253 39.18C164.593 40.06 162.663 40.5 160.463 40.5H152.573V19.44H160.463ZM160.133 36.06C162.073 36.06 163.583 35.53 164.663 34.47C165.743 33.41 166.283 31.91 166.283 29.97C166.283 28.03 165.743 26.52 164.663 25.44C163.583 24.36 162.073 23.82 160.133 23.82H157.703V36.06H160.133ZM173.35 32.1C173.35 30.38 173.67 28.87 174.31 27.57C174.97 26.27 175.86 25.27 176.98 24.57C178.1 23.87 179.35 23.52 180.73 23.52C181.91 23.52 182.94 23.76 183.82 24.24C184.72 24.72 185.41 25.35 185.89 26.13V23.76H191.02V40.5H185.89V38.13C185.39 38.91 184.69 39.54 183.79 40.02C182.91 40.5 181.88 40.74 180.7 40.74C179.34 40.74 178.1 40.39 176.98 39.69C175.86 38.97 174.97 37.96 174.31 36.66C173.67 35.34 173.35 33.82 173.35 32.1ZM185.89 32.13C185.89 30.85 185.53 29.84 184.81 29.1C184.11 28.36 183.25 27.99 182.23 27.99C181.21 27.99 180.34 28.36 179.62 29.1C178.92 29.82 178.57 30.82 178.57 32.1C178.57 33.38 178.92 34.4 179.62 35.16C180.34 35.9 181.21 36.27 182.23 36.27C183.25 36.27 184.11 35.9 184.81 35.16C185.53 34.42 185.89 33.41 185.89 32.13ZM204.061 36.15V40.5H201.451C199.591 40.5 198.141 40.05 197.101 39.15C196.061 38.23 195.541 36.74 195.541 34.68V28.02H193.501V23.76H195.541V19.68H200.671V23.76H204.031V28.02H200.671V34.74C200.671 35.24 200.791 35.6 201.031 35.82C201.271 36.04 201.671 36.15 202.231 36.15H204.061ZM205.899 32.1C205.899 30.38 206.219 28.87 206.859 27.57C207.519 26.27 208.409 25.27 209.529 24.57C210.649 23.87 211.899 23.52 213.279 23.52C214.459 23.52 215.489 23.76 216.369 24.24C217.269 24.72 217.959 25.35 218.439 26.13V23.76H223.569V40.5H218.439V38.13C217.939 38.91 217.239 39.54 216.339 40.02C215.459 40.5 214.429 40.74 213.249 40.74C211.889 40.74 210.649 40.39 209.529 39.69C208.409 38.97 207.519 37.96 206.859 36.66C206.219 35.34 205.899 33.82 205.899 32.1ZM218.439 32.13C218.439 30.85 218.079 29.84 217.359 29.1C216.659 28.36 215.799 27.99 214.779 27.99C213.759 27.99 212.889 28.36 212.169 29.1C211.469 29.82 211.119 30.82 211.119 32.1C211.119 33.38 211.469 34.4 212.169 35.16C212.889 35.9 213.759 36.27 214.779 36.27C215.799 36.27 216.659 35.9 217.359 35.16C218.079 34.42 218.439 33.41 218.439 32.13Z" fill="white"/>
</svg>
